# xmcd CD database file
#
# Track frame offsets:
#	182
#	11088
#	28665
#	44375
#	77620
#	96118
#	118343
#	132613
#	157908
#	177140
#
# Disc length: 2584 seconds
#
# Revision: 23
# Processed by: cddbd v1.5.2PL0 Copyright (c) Steve Scherf et al.
# Submitted via: CDex 1.73
#
DISCID=7c0a160a
DTITLE=Led Zeppelin - Led Zeppelin III
DYEAR=1970
DGENRE=Rock
TTITLE0=Immigrant Song
TTITLE1=Friends
TTITLE2=Celebration Day
TTITLE3=Since I've Been Loving You
TTITLE4=Out on the Tiles
TTITLE5=Gallows Pole
TTITLE6=Tangerine
TTITLE7=That's the Way
TTITLE8=Bron-Y-Aur Stomp
TTITLE9=Hats off to (Roy) Harper
EXTD=YEAR: 1970
EXTT0=
EXTT1=
EXTT2=
EXTT3=
EXTT4=
EXTT5=
EXTT6=
EXTT7=
EXTT8=
EXTT9=Worst song ever produced (by anybody bar none)
PLAYORDER=
